 The.Ides.Of.March.2011.DVDSCR.XviD-RLF 
 ~~~~~~~~~~~~~~~~~~~~~~~~~~~~~~~~~~~~~~ 


 General:

 
 Complete name: rlf-march-scr.avi

 Format: AVI

 Format/Info: Audio Video Interleave

 File size: 696 MiB

 Duration: 1h 41mn

 Overall bit rate: 962 Kbps

 Language: English

 Subs: N/A 

 Encoder: Ralf

 
 Video:

 
 Format: MPEG-4 Visual

 Format profile: Advanced Simple@L5

 Format settings, BVOP: 2

 Format settings, QPel: No

 Format settings, GMC: No warppoints

 Format settings, Matrix: H.263

 Muxing mode: Packed bitstream

 Codec ID: XVID

 Duration: 1h 41mn

 Bit rate: 821 Kbps

 Width: 688 pixels

 Height: 288 pixels

 Display aspect ratio: 2.35:1

 Frame rate: 23.976 fps

 Color space: YUV

 Chroma subsampling: 4:2:0

 Bit depth: 8 bits

 Scan type: Progressive

 Bits/(Pixel*Frame): 0.173

 Stream size: 594 MiB (85%)

 
 Audio:

 
 Format: MPEG Audio

 Format profile: Layer 3

 Codec ID/Hint: MP3

 Duration: 1h 41mn

 Bit rate mode: Constant

 Bit rate: 128 Kbps

 Channel(s): 2 channels

 Sampling rate: 44.1 KHz

 Stream size: 92.6 MiB (13%)

 Alignment: Split accross interleaves

 
 Info: 


 An idealistic staffer for a newbie presidential candidate gets a 
 crash course on dirty politics during his stint on the 
 campaign trail.
                                            http://www.imdb.com/title/tt1124035/  http://www.filmweb.pl/film/Idy+marcowe-2011-530029


 Screens:
  http://www.postimg.com/54000/photo-53750.jpg  http://www.postimg.com/54000/photo-53751.jpg  http://www.postimg.com/54000/photo-53752.jpg  http://www.postimg.com/54000/photo-53753.jpg
 